%TF.GenerationSoftware,KiCad,Pcbnew,(6.0.7)*%
%TF.CreationDate,2022-08-17T17:24:52+08:00*%
%TF.ProjectId,asdfgg,61736466-6767-42e6-9b69-6361645f7063,rev?*%
%TF.SameCoordinates,Original*%
%TF.FileFunction,Copper,L1,Top*%
%TF.FilePolarity,Positive*%
%FSLAX46Y46*%
G04 Gerber Fmt 4.6, Leading zero omitted, Abs format (unit mm)*
G04 Created by KiCad (PCBNEW (6.0.7)) date 2022-08-17 17:24:52*
%MOMM*%
%LPD*%
G01*
G04 APERTURE LIST*
G04 Aperture macros list*
%AMRoundRect*
0 Rectangle with rounded corners*
0 $1 Rounding radius*
0 $2 $3 $4 $5 $6 $7 $8 $9 X,Y pos of 4 corners*
0 Add a 4 corners polygon primitive as box body*
4,1,4,$2,$3,$4,$5,$6,$7,$8,$9,$2,$3,0*
0 Add four circle primitives for the rounded corners*
1,1,$1+$1,$2,$3*
1,1,$1+$1,$4,$5*
1,1,$1+$1,$6,$7*
1,1,$1+$1,$8,$9*
0 Add four rect primitives between the rounded corners*
20,1,$1+$1,$2,$3,$4,$5,0*
20,1,$1+$1,$4,$5,$6,$7,0*
20,1,$1+$1,$6,$7,$8,$9,0*
20,1,$1+$1,$8,$9,$2,$3,0*%
G04 Aperture macros list end*
%TA.AperFunction,SMDPad,CuDef*%
%ADD10RoundRect,0.212500X-0.212500X-0.217500X0.212500X-0.217500X0.212500X0.217500X-0.212500X0.217500X0*%
%TD*%
%TA.AperFunction,SMDPad,CuDef*%
%ADD11RoundRect,0.218750X0.218750X0.256250X-0.218750X0.256250X-0.218750X-0.256250X0.218750X-0.256250X0*%
%TD*%
%TA.AperFunction,SMDPad,CuDef*%
%ADD12RoundRect,0.218750X0.256250X-0.218750X0.256250X0.218750X-0.256250X0.218750X-0.256250X-0.218750X0*%
%TD*%
%TA.AperFunction,SMDPad,CuDef*%
%ADD13RoundRect,0.212500X0.217500X-0.212500X0.217500X0.212500X-0.217500X0.212500X-0.217500X-0.212500X0*%
%TD*%
%TA.AperFunction,SMDPad,CuDef*%
%ADD14RoundRect,0.218750X-0.218750X-0.256250X0.218750X-0.256250X0.218750X0.256250X-0.218750X0.256250X0*%
%TD*%
%TA.AperFunction,SMDPad,CuDef*%
%ADD15R,1.300000X0.300000*%
%TD*%
%TA.AperFunction,SMDPad,CuDef*%
%ADD16R,2.200000X1.800000*%
%TD*%
%TA.AperFunction,SMDPad,CuDef*%
%ADD17R,0.600000X0.700000*%
%TD*%
%TA.AperFunction,SMDPad,CuDef*%
%ADD18RoundRect,0.212500X-0.217500X0.212500X-0.217500X-0.212500X0.217500X-0.212500X0.217500X0.212500X0*%
%TD*%
%TA.AperFunction,SMDPad,CuDef*%
%ADD19RoundRect,0.212500X0.212500X0.217500X-0.212500X0.217500X-0.212500X-0.217500X0.212500X-0.217500X0*%
%TD*%
%TA.AperFunction,SMDPad,CuDef*%
%ADD20R,0.850000X0.300000*%
%TD*%
%TA.AperFunction,SMDPad,CuDef*%
%ADD21R,0.300000X0.850000*%
%TD*%
%TA.AperFunction,SMDPad,CuDef*%
%ADD22R,2.650000X2.650000*%
%TD*%
%TA.AperFunction,ComponentPad*%
%ADD23R,1.650000X1.650000*%
%TD*%
%TA.AperFunction,ComponentPad*%
%ADD24C,1.650000*%
%TD*%
%TA.AperFunction,SMDPad,CuDef*%
%ADD25RoundRect,0.218750X-0.256250X0.218750X-0.256250X-0.218750X0.256250X-0.218750X0.256250X0.218750X0*%
%TD*%
%TA.AperFunction,ViaPad*%
%ADD26C,0.800000*%
%TD*%
%TA.AperFunction,Conductor*%
%ADD27C,0.250000*%
%TD*%
%TA.AperFunction,Conductor*%
%ADD28C,0.200000*%
%TD*%
G04 APERTURE END LIST*
D10*
%TO.P,R19,1*%
%TO.N,GND*%
X177120000Y-76200000D03*
%TO.P,R19,2*%
%TO.N,Net-(R19-Pad2)*%
X178480000Y-76200000D03*
%TD*%
D11*
%TO.P,C2,1*%
%TO.N,Net-(C2-Pad1)*%
X140487500Y-116840000D03*
%TO.P,C2,2*%
%TO.N,Net-(C2-Pad2)*%
X138912500Y-116840000D03*
%TD*%
D10*
%TO.P,R11,1*%
%TO.N,Net-(C4-Pad2)*%
X126320000Y-147320000D03*
%TO.P,R11,2*%
%TO.N,Net-(R11-Pad2)*%
X127680000Y-147320000D03*
%TD*%
%TO.P,R13,1*%
%TO.N,Net-(R11-Pad2)*%
X139020000Y-147320000D03*
%TO.P,R13,2*%
%TO.N,Net-(R13-Pad2)*%
X140380000Y-147320000D03*
%TD*%
D12*
%TO.P,C3,1*%
%TO.N,Net-(C3-Pad1)*%
X157480000Y-137947500D03*
%TO.P,C3,2*%
%TO.N,/REFOUT*%
X157480000Y-136372500D03*
%TD*%
D13*
%TO.P,R20,1*%
%TO.N,Net-(R19-Pad2)*%
X175940000Y-89580000D03*
%TO.P,R20,2*%
%TO.N,+3.3V*%
X175940000Y-88220000D03*
%TD*%
D14*
%TO.P,C1,1*%
%TO.N,Net-(C1-Pad1)*%
X163525000Y-147320000D03*
%TO.P,C1,2*%
%TO.N,/SIGNAL_OUT*%
X165100000Y-147320000D03*
%TD*%
%TO.P,C7,1*%
%TO.N,Net-(C7-Pad1)*%
X164312500Y-81280000D03*
%TO.P,C7,2*%
%TO.N,GND*%
X165887500Y-81280000D03*
%TD*%
D10*
%TO.P,R3,1*%
%TO.N,/LA*%
X139020000Y-106680000D03*
%TO.P,R3,2*%
%TO.N,Net-(R3-Pad2)*%
X140380000Y-106680000D03*
%TD*%
D15*
%TO.P,JP1,1,1*%
%TO.N,/RL*%
X122610000Y-122380000D03*
%TO.P,JP1,2,2*%
%TO.N,/RA*%
X122610000Y-121880000D03*
%TO.P,JP1,3,3*%
%TO.N,/LA*%
X122610000Y-121380000D03*
%TO.P,JP1,4*%
%TO.N,N/C*%
X122610000Y-120880000D03*
%TO.P,JP1,5*%
X122610000Y-120380000D03*
%TO.P,JP1,6*%
X122610000Y-119880000D03*
%TO.P,JP1,7*%
X122610000Y-119380000D03*
%TO.P,JP1,8*%
X122610000Y-118880000D03*
%TO.P,JP1,9*%
X122610000Y-118380000D03*
%TO.P,JP1,10*%
X122610000Y-117880000D03*
%TO.P,JP1,11*%
X122610000Y-117380000D03*
%TO.P,JP1,12*%
X122610000Y-116880000D03*
%TO.P,JP1,13*%
X122610000Y-116380000D03*
D16*
%TO.P,JP1,MP*%
X125860000Y-124280000D03*
X125860000Y-114480000D03*
%TD*%
D14*
%TO.P,D1,1,K*%
%TO.N,Net-(D1-Pad1)*%
X151612500Y-154940000D03*
%TO.P,D1,2,A*%
%TO.N,Net-(D1-Pad2)*%
X153187500Y-154940000D03*
%TD*%
D17*
%TO.P,D2,1,K*%
%TO.N,GND*%
X139000000Y-154940000D03*
%TO.P,D2,2,A*%
%TO.N,Net-(D1-Pad1)*%
X140400000Y-154940000D03*
%TD*%
D18*
%TO.P,R8,1*%
%TO.N,Net-(R8-Pad1)*%
X162560000Y-136480000D03*
%TO.P,R8,2*%
%TO.N,/REFOUT*%
X162560000Y-137840000D03*
%TD*%
D10*
%TO.P,R1,1*%
%TO.N,Net-(R1-Pad1)*%
X131400000Y-106680000D03*
%TO.P,R1,2*%
%TO.N,/LA*%
X132760000Y-106680000D03*
%TD*%
D12*
%TO.P,C5,1*%
%TO.N,+3.3V*%
X165100000Y-89687500D03*
%TO.P,C5,2*%
%TO.N,GND*%
X165100000Y-88112500D03*
%TD*%
D18*
%TO.P,R9,1*%
%TO.N,/SIGNAL_OUT*%
X167640000Y-136480000D03*
%TO.P,R9,2*%
%TO.N,Net-(R8-Pad1)*%
X167640000Y-137840000D03*
%TD*%
D10*
%TO.P,R14,1*%
%TO.N,Net-(C7-Pad1)*%
X164420000Y-76200000D03*
%TO.P,R14,2*%
%TO.N,GND*%
X165780000Y-76200000D03*
%TD*%
%TO.P,R5,1*%
%TO.N,/RL*%
X139020000Y-121920000D03*
%TO.P,R5,2*%
%TO.N,Net-(C2-Pad2)*%
X140380000Y-121920000D03*
%TD*%
D19*
%TO.P,R15,1*%
%TO.N,+3.3V*%
X175940000Y-111760000D03*
%TO.P,R15,2*%
%TO.N,/SDN*%
X174580000Y-111760000D03*
%TD*%
%TO.P,R4,1*%
%TO.N,Net-(R4-Pad1)*%
X140380000Y-111760000D03*
%TO.P,R4,2*%
%TO.N,/RA*%
X139020000Y-111760000D03*
%TD*%
D20*
%TO.P,U1,1,HPDRIVE*%
%TO.N,Net-(C4-Pad1)*%
X155530000Y-110760000D03*
%TO.P,U1,2,+IN*%
%TO.N,Net-(R3-Pad2)*%
X155530000Y-111260000D03*
%TO.P,U1,3,-IN*%
%TO.N,Net-(R4-Pad1)*%
X155530000Y-111760000D03*
%TO.P,U1,4,RLDFB*%
%TO.N,Net-(C2-Pad1)*%
X155530000Y-112260000D03*
%TO.P,U1,5,RLD*%
%TO.N,Net-(C2-Pad2)*%
X155530000Y-112760000D03*
D21*
%TO.P,U1,6,SW*%
%TO.N,Net-(C6-Pad1)*%
X156480000Y-113710000D03*
%TO.P,U1,7,OPAMP+*%
%TO.N,Net-(C3-Pad1)*%
X156980000Y-113710000D03*
%TO.P,U1,8,REFOUT*%
%TO.N,/REFOUT*%
X157480000Y-113710000D03*
%TO.P,U1,9,OPAMP-*%
%TO.N,Net-(R8-Pad1)*%
X157980000Y-113710000D03*
%TO.P,U1,10,OUT*%
%TO.N,/SIGNAL_OUT*%
X158480000Y-113710000D03*
D20*
%TO.P,U1,11,LO-*%
%TO.N,/LO-*%
X159430000Y-112760000D03*
%TO.P,U1,12,LO+*%
%TO.N,/LO+*%
X159430000Y-112260000D03*
%TO.P,U1,13,~{SDN}*%
%TO.N,/SDN*%
X159430000Y-111760000D03*
%TO.P,U1,14,AC/~{DC}*%
%TO.N,Net-(R19-Pad2)*%
X159430000Y-111260000D03*
%TO.P,U1,15,FR*%
%TO.N,+3.3V*%
X159430000Y-110760000D03*
D21*
%TO.P,U1,16,GND*%
%TO.N,GND*%
X158480000Y-109810000D03*
%TO.P,U1,17,+VS*%
%TO.N,+3.3V*%
X157980000Y-109810000D03*
%TO.P,U1,18,REFIN*%
%TO.N,Net-(C7-Pad1)*%
X157480000Y-109810000D03*
%TO.P,U1,19,IAOUT*%
%TO.N,Net-(R13-Pad2)*%
X156980000Y-109810000D03*
%TO.P,U1,20,HPSENSE*%
%TO.N,Net-(C4-Pad2)*%
X156480000Y-109810000D03*
D22*
%TO.P,U1,21*%
%TO.N,N/C*%
X157480000Y-111760000D03*
%TD*%
D13*
%TO.P,R7,1*%
%TO.N,Net-(C1-Pad1)*%
X152400000Y-137840000D03*
%TO.P,R7,2*%
%TO.N,Net-(C3-Pad1)*%
X152400000Y-136480000D03*
%TD*%
D23*
%TO.P,JP2,1,1*%
%TO.N,GND*%
X175260000Y-133350000D03*
D24*
%TO.P,JP2,2,2*%
%TO.N,+3.3V*%
X175260000Y-130810000D03*
%TO.P,JP2,3,3*%
%TO.N,/SIGNAL_OUT*%
X175260000Y-128270000D03*
%TO.P,JP2,4,4*%
%TO.N,/LO-*%
X175260000Y-125730000D03*
%TO.P,JP2,5,5*%
%TO.N,/LO+*%
X175260000Y-123190000D03*
%TO.P,JP2,6,6*%
%TO.N,/SDN*%
X175260000Y-120650000D03*
%TD*%
D19*
%TO.P,R6,1*%
%TO.N,Net-(C1-Pad1)*%
X153080000Y-147320000D03*
%TO.P,R6,2*%
%TO.N,Net-(R13-Pad2)*%
X151720000Y-147320000D03*
%TD*%
D13*
%TO.P,R17,1*%
%TO.N,+3.3V*%
X132080000Y-137840000D03*
%TO.P,R17,2*%
%TO.N,Net-(R1-Pad1)*%
X132080000Y-136480000D03*
%TD*%
%TO.P,R10,1*%
%TO.N,Net-(C7-Pad1)*%
X157480000Y-89580000D03*
%TO.P,R10,2*%
%TO.N,+3.3V*%
X157480000Y-88220000D03*
%TD*%
D25*
%TO.P,C6,1*%
%TO.N,Net-(C6-Pad1)*%
X142240000Y-136372500D03*
%TO.P,C6,2*%
%TO.N,/REFOUT*%
X142240000Y-137947500D03*
%TD*%
D10*
%TO.P,R2,1*%
%TO.N,Net-(R1-Pad1)*%
X131400000Y-111760000D03*
%TO.P,R2,2*%
%TO.N,/RA*%
X132760000Y-111760000D03*
%TD*%
D14*
%TO.P,C4,1*%
%TO.N,Net-(C4-Pad1)*%
X138912500Y-93980000D03*
%TO.P,C4,2*%
%TO.N,Net-(C4-Pad2)*%
X140487500Y-93980000D03*
%TD*%
D13*
%TO.P,R18,1*%
%TO.N,Net-(R1-Pad1)*%
X137160000Y-137840000D03*
%TO.P,R18,2*%
%TO.N,Net-(C6-Pad1)*%
X137160000Y-136480000D03*
%TD*%
D19*
%TO.P,R16,1*%
%TO.N,/SIGNAL_OUT*%
X164992500Y-154940000D03*
%TO.P,R16,2*%
%TO.N,Net-(D1-Pad2)*%
X163632500Y-154940000D03*
%TD*%
D18*
%TO.P,R12,1*%
%TO.N,Net-(C6-Pad1)*%
X147320000Y-136480000D03*
%TO.P,R12,2*%
%TO.N,Net-(R11-Pad2)*%
X147320000Y-137840000D03*
%TD*%
D26*
%TO.N,*%
X121920000Y-106680000D03*
%TO.N,/REFOUT*%
X142240000Y-139700000D03*
X157480000Y-132080000D03*
%TO.N,+3.3V*%
X158204500Y-103640000D03*
X170180000Y-101600000D03*
X162560000Y-109220000D03*
X177800000Y-116840000D03*
X132080000Y-139700000D03*
%TO.N,GND*%
X177800000Y-132080000D03*
X162560000Y-104140000D03*
X165100000Y-83820000D03*
%TO.N,/RL*%
X137160000Y-121920000D03*
X119380000Y-121920000D03*
%TO.N,/LA*%
X137160000Y-106680000D03*
%TO.N,/RA*%
X137160000Y-111760000D03*
X119380000Y-111760000D03*
%TD*%
D27*
%TO.N,/RA*%
X139020000Y-111760000D02*
X137160000Y-111760000D01*
X137160000Y-111760000D02*
X132760000Y-111760000D01*
%TO.N,Net-(C1-Pad1)*%
X152400000Y-146640000D02*
X153080000Y-147320000D01*
X163525000Y-147320000D02*
X153080000Y-147320000D01*
X152400000Y-137840000D02*
X152400000Y-146640000D01*
%TO.N,/SIGNAL_OUT*%
X170180000Y-139020000D02*
X170180000Y-144780000D01*
X158480000Y-115300000D02*
X167640000Y-124460000D01*
X167640000Y-124460000D02*
X171450000Y-128270000D01*
X171450000Y-128270000D02*
X175260000Y-128270000D01*
X165100000Y-154832500D02*
X164992500Y-154940000D01*
X170180000Y-144780000D02*
X167640000Y-147320000D01*
X158480000Y-113710000D02*
X158480000Y-115300000D01*
X165100000Y-147320000D02*
X165100000Y-154832500D01*
X167640000Y-124460000D02*
X167640000Y-136480000D01*
X167640000Y-147320000D02*
X165100000Y-147320000D01*
X167640000Y-136480000D02*
X170180000Y-139020000D01*
%TO.N,Net-(C2-Pad2)*%
X138912500Y-120452500D02*
X138912500Y-116840000D01*
X140380000Y-121920000D02*
X138912500Y-120452500D01*
X144780000Y-121920000D02*
X140380000Y-121920000D01*
X155530000Y-112760000D02*
X153940000Y-112760000D01*
X153940000Y-112760000D02*
X144780000Y-121920000D01*
%TO.N,Net-(C2-Pad1)*%
X155530000Y-112260000D02*
X149360000Y-112260000D01*
X144780000Y-116840000D02*
X140487500Y-116840000D01*
X149360000Y-112260000D02*
X144780000Y-116840000D01*
%TO.N,Net-(C3-Pad1)*%
X156980000Y-113710000D02*
X156980000Y-119880000D01*
X152400000Y-124460000D02*
X152400000Y-136480000D01*
X153867500Y-137947500D02*
X157480000Y-137947500D01*
X152400000Y-136480000D02*
X153867500Y-137947500D01*
X156980000Y-119880000D02*
X152400000Y-124460000D01*
%TO.N,/REFOUT*%
X158947500Y-137840000D02*
X162560000Y-137840000D01*
X157480000Y-113710000D02*
X157480000Y-136372500D01*
X142240000Y-137947500D02*
X142240000Y-139700000D01*
X157480000Y-136372500D02*
X158947500Y-137840000D01*
%TO.N,Net-(C4-Pad1)*%
X153940000Y-110760000D02*
X155530000Y-110760000D01*
X138912500Y-93980000D02*
X138912500Y-95732500D01*
X138912500Y-95732500D02*
X153940000Y-110760000D01*
%TO.N,Net-(C4-Pad2)*%
X137160000Y-88900000D02*
X142240000Y-93980000D01*
X142240000Y-93980000D02*
X140487500Y-93980000D01*
X124460000Y-145460000D02*
X124460000Y-88900000D01*
X124460000Y-88900000D02*
X137160000Y-88900000D01*
X126320000Y-147320000D02*
X124460000Y-145460000D01*
X156480000Y-108220000D02*
X142240000Y-93980000D01*
X156480000Y-109810000D02*
X156480000Y-108220000D01*
%TO.N,+3.3V*%
X132080000Y-137840000D02*
X132080000Y-139700000D01*
X161020000Y-110760000D02*
X162560000Y-109220000D01*
X177800000Y-113620000D02*
X177800000Y-116840000D01*
X157480000Y-88220000D02*
X158947500Y-89687500D01*
X157980000Y-103640000D02*
X165100000Y-96520000D01*
X166567500Y-88220000D02*
X175940000Y-88220000D01*
X162560000Y-109220000D02*
X170180000Y-101600000D01*
X176530000Y-130810000D02*
X175260000Y-130810000D01*
X165100000Y-89687500D02*
X166567500Y-88220000D01*
X175940000Y-111760000D02*
X177800000Y-113620000D01*
X165100000Y-96520000D02*
X165100000Y-89687500D01*
X159430000Y-110760000D02*
X161020000Y-110760000D01*
X158947500Y-89687500D02*
X165100000Y-89687500D01*
X177800000Y-116840000D02*
X177800000Y-129540000D01*
X157980000Y-109810000D02*
X157980000Y-103640000D01*
X177800000Y-129540000D02*
X176530000Y-130810000D01*
%TO.N,GND*%
X165100000Y-88112500D02*
X165100000Y-82067500D01*
X158480000Y-108220000D02*
X162560000Y-104140000D01*
X165887500Y-81280000D02*
X165780000Y-81172500D01*
X175260000Y-133350000D02*
X176530000Y-133350000D01*
X158480000Y-109810000D02*
X158480000Y-108220000D01*
X165780000Y-76200000D02*
X177120000Y-76200000D01*
X109220000Y-147320000D02*
X109220000Y-78740000D01*
X116840000Y-71120000D02*
X172720000Y-71120000D01*
X139000000Y-154940000D02*
X116840000Y-154940000D01*
X116840000Y-154940000D02*
X109220000Y-147320000D01*
X177120000Y-75520000D02*
X177120000Y-76200000D01*
X176530000Y-133350000D02*
X177800000Y-132080000D01*
X165780000Y-81172500D02*
X165780000Y-76200000D01*
X172720000Y-71120000D02*
X177120000Y-75520000D01*
X165100000Y-82067500D02*
X165887500Y-81280000D01*
X109220000Y-78740000D02*
X116840000Y-71120000D01*
%TO.N,Net-(C6-Pad1)*%
X156480000Y-113710000D02*
X156480000Y-115300000D01*
X137267500Y-136372500D02*
X142240000Y-136372500D01*
X147320000Y-124460000D02*
X147320000Y-136480000D01*
X156480000Y-115300000D02*
X147320000Y-124460000D01*
X137160000Y-136480000D02*
X137267500Y-136372500D01*
X142240000Y-136372500D02*
X142347500Y-136480000D01*
X142347500Y-136480000D02*
X147320000Y-136480000D01*
%TO.N,Net-(C7-Pad1)*%
X157480000Y-109810000D02*
X157480000Y-89580000D01*
X164420000Y-81172500D02*
X164420000Y-76200000D01*
X157480000Y-89580000D02*
X155620000Y-89580000D01*
X152400000Y-86360000D02*
X152400000Y-81280000D01*
X152400000Y-81280000D02*
X164312500Y-81280000D01*
X164312500Y-81280000D02*
X164420000Y-81172500D01*
X155620000Y-89580000D02*
X152400000Y-86360000D01*
%TO.N,Net-(D1-Pad1)*%
X151612500Y-154940000D02*
X140400000Y-154940000D01*
%TO.N,Net-(D1-Pad2)*%
X163632500Y-154940000D02*
X153187500Y-154940000D01*
%TO.N,/RL*%
X119840000Y-122380000D02*
X119380000Y-121920000D01*
X139020000Y-121920000D02*
X137160000Y-121920000D01*
X122610000Y-122380000D02*
X119840000Y-122380000D01*
%TO.N,/LA*%
X121660000Y-121380000D02*
X121195000Y-120915000D01*
X121195000Y-107405000D02*
X121920000Y-106680000D01*
X137160000Y-106680000D02*
X132760000Y-106680000D01*
X122610000Y-121380000D02*
X121660000Y-121380000D01*
X139020000Y-106680000D02*
X137160000Y-106680000D01*
X121195000Y-120915000D02*
X121195000Y-107405000D01*
D28*
%TO.N,/LO-*%
X159430000Y-112760000D02*
X161020000Y-112760000D01*
X161020000Y-112760000D02*
X173990000Y-125730000D01*
X173990000Y-125730000D02*
X175260000Y-125730000D01*
%TO.N,/LO+*%
X165600000Y-112260000D02*
X170180000Y-116840000D01*
X159430000Y-112260000D02*
X165600000Y-112260000D01*
X170180000Y-116840000D02*
X170180000Y-118110000D01*
X170180000Y-118110000D02*
X175260000Y-123190000D01*
D27*
%TO.N,/SDN*%
X174580000Y-111760000D02*
X175260000Y-112440000D01*
X159430000Y-111760000D02*
X174580000Y-111760000D01*
X175260000Y-112440000D02*
X175260000Y-120650000D01*
%TO.N,/RA*%
X119380000Y-119736396D02*
X119380000Y-111760000D01*
X122610000Y-121880000D02*
X121523604Y-121880000D01*
X121523604Y-121880000D02*
X119380000Y-119736396D01*
%TO.N,Net-(R3-Pad2)*%
X155530000Y-111260000D02*
X149360000Y-111260000D01*
X144780000Y-106680000D02*
X140380000Y-106680000D01*
X149360000Y-111260000D02*
X144780000Y-106680000D01*
%TO.N,Net-(R4-Pad1)*%
X155530000Y-111760000D02*
X140380000Y-111760000D01*
%TO.N,Net-(R1-Pad1)*%
X133440000Y-137840000D02*
X137160000Y-137840000D01*
X131400000Y-106680000D02*
X131400000Y-111760000D01*
X131400000Y-135800000D02*
X132080000Y-136480000D01*
X132080000Y-136480000D02*
X133440000Y-137840000D01*
X131400000Y-111760000D02*
X131400000Y-135800000D01*
%TO.N,Net-(R8-Pad1)*%
X162560000Y-136480000D02*
X163920000Y-137840000D01*
X157980000Y-113710000D02*
X157980000Y-119880000D01*
X157980000Y-119880000D02*
X162560000Y-124460000D01*
X162560000Y-124460000D02*
X162560000Y-136480000D01*
X163920000Y-137840000D02*
X167640000Y-137840000D01*
%TO.N,Net-(R11-Pad2)*%
X147320000Y-137840000D02*
X146640000Y-137840000D01*
X139020000Y-147320000D02*
X127680000Y-147320000D01*
X146640000Y-137840000D02*
X139020000Y-145460000D01*
X139020000Y-145460000D02*
X139020000Y-147320000D01*
%TO.N,Net-(R19-Pad2)*%
X178480000Y-86870140D02*
X175940000Y-89410140D01*
X159430000Y-111260000D02*
X165600000Y-111260000D01*
X165600000Y-111260000D02*
X175940000Y-100920000D01*
X175940000Y-89410140D02*
X175940000Y-89580000D01*
X178480000Y-76200000D02*
X178480000Y-86870140D01*
X175940000Y-100920000D02*
X175940000Y-89580000D01*
%TO.N,Net-(R13-Pad2)*%
X116840000Y-83820000D02*
X116840000Y-147320000D01*
X156980000Y-109810000D02*
X156980000Y-103640000D01*
X151720000Y-150540000D02*
X151720000Y-147320000D01*
X156980000Y-103640000D02*
X137160000Y-83820000D01*
X137160000Y-83820000D02*
X116840000Y-83820000D01*
X116840000Y-147320000D02*
X121920000Y-152400000D01*
X121920000Y-152400000D02*
X149860000Y-152400000D01*
X149860000Y-152400000D02*
X151720000Y-150540000D01*
X151720000Y-147320000D02*
X140380000Y-147320000D01*
%TD*%
M02*
