%TF.GenerationSoftware,KiCad,Pcbnew,(6.0.7)*%
%TF.CreationDate,2022-08-17T17:24:52+08:00*%
%TF.ProjectId,asdfgg,61736466-6767-42e6-9b69-6361645f7063,rev?*%
%TF.SameCoordinates,Original*%
%TF.FileFunction,Copper,L2,Bot*%
%TF.FilePolarity,Positive*%
%FSLAX46Y46*%
G04 Gerber Fmt 4.6, Leading zero omitted, Abs format (unit mm)*
G04 Created by KiCad (PCBNEW (6.0.7)) date 2022-08-17 17:24:52*
%MOMM*%
%LPD*%
G01*
G04 APERTURE LIST*
%TA.AperFunction,NonConductor*%
%ADD10C,0.200000*%
%TD*%
%TA.AperFunction,ComponentPad*%
%ADD11R,1.650000X1.650000*%
%TD*%
%TA.AperFunction,ComponentPad*%
%ADD12C,1.650000*%
%TD*%
%TA.AperFunction,ViaPad*%
%ADD13C,0.800000*%
%TD*%
%TA.AperFunction,Conductor*%
%ADD14C,0.250000*%
%TD*%
G04 APERTURE END LIST*
D10*
X137160000Y-106680000D02*
X121920000Y-106680000D01*
D11*
%TO.P,JP2,1,1*%
%TO.N,GND*%
X175260000Y-133350000D03*
D12*
%TO.P,JP2,2,2*%
%TO.N,+3.3V*%
X175260000Y-130810000D03*
%TO.P,JP2,3,3*%
%TO.N,/SIGNAL_OUT*%
X175260000Y-128270000D03*
%TO.P,JP2,4,4*%
%TO.N,/LO-*%
X175260000Y-125730000D03*
%TO.P,JP2,5,5*%
%TO.N,/LO+*%
X175260000Y-123190000D03*
%TO.P,JP2,6,6*%
%TO.N,/SDN*%
X175260000Y-120650000D03*
%TD*%
D13*
%TO.N,*%
X121920000Y-106680000D03*
%TO.N,/REFOUT*%
X142240000Y-139700000D03*
X157480000Y-132080000D03*
%TO.N,+3.3V*%
X158204500Y-103640000D03*
X170180000Y-101600000D03*
X162560000Y-109220000D03*
X177800000Y-116840000D03*
X132080000Y-139700000D03*
%TO.N,GND*%
X177800000Y-132080000D03*
X162560000Y-104140000D03*
X165100000Y-83820000D03*
%TO.N,/RL*%
X137160000Y-121920000D03*
X119380000Y-121920000D03*
%TO.N,/LA*%
X137160000Y-106680000D03*
%TO.N,/RA*%
X137160000Y-111760000D03*
X119380000Y-111760000D03*
%TD*%
D14*
%TO.N,/RA*%
X137160000Y-111760000D02*
X119380000Y-111760000D01*
%TO.N,GND*%
X167640000Y-99060000D02*
X162560000Y-104140000D01*
X167640000Y-99060000D02*
X168665305Y-99060000D01*
X168665305Y-99060000D02*
X178525000Y-108919695D01*
X178525000Y-108919695D02*
X178525000Y-131355000D01*
X178525000Y-131355000D02*
X177800000Y-132080000D01*
X167640000Y-99060000D02*
X167640000Y-86360000D01*
X167640000Y-86360000D02*
X165100000Y-83820000D01*
%TO.N,/REFOUT*%
X149860000Y-139700000D02*
X157480000Y-132080000D01*
X142240000Y-139700000D02*
X149860000Y-139700000D01*
%TO.N,+3.3V*%
X166915000Y-104865000D02*
X159429500Y-104865000D01*
X170180000Y-101600000D02*
X166915000Y-104865000D01*
X159429500Y-104865000D02*
X158204500Y-103640000D01*
X132080000Y-139700000D02*
X162560000Y-109220000D01*
X177800000Y-109220000D02*
X177800000Y-116840000D01*
X170180000Y-101600000D02*
X177800000Y-109220000D01*
%TO.N,/RL*%
X119380000Y-121920000D02*
X137160000Y-121920000D01*
%TD*%
M02*
