%TF.GenerationSoftware,KiCad,Pcbnew,(6.0.7)*%
%TF.CreationDate,2022-08-17T17:24:52+08:00*%
%TF.ProjectId,asdfgg,61736466-6767-42e6-9b69-6361645f7063,rev?*%
%TF.SameCoordinates,Original*%
%TF.FileFunction,Legend,Top*%
%TF.FilePolarity,Positive*%
%FSLAX46Y46*%
G04 Gerber Fmt 4.6, Leading zero omitted, Abs format (unit mm)*
G04 Created by KiCad (PCBNEW (6.0.7)) date 2022-08-17 17:24:52*
%MOMM*%
%LPD*%
G01*
G04 APERTURE LIST*
%ADD10C,0.150000*%
%ADD11C,0.254000*%
%ADD12C,0.200000*%
%ADD13C,0.120000*%
%ADD14C,0.250000*%
G04 APERTURE END LIST*
D10*
%TO.C,R19*%
X177157142Y-75222380D02*
X176823809Y-74746190D01*
X176585714Y-75222380D02*
X176585714Y-74222380D01*
X176966666Y-74222380D01*
X177061904Y-74270000D01*
X177109523Y-74317619D01*
X177157142Y-74412857D01*
X177157142Y-74555714D01*
X177109523Y-74650952D01*
X177061904Y-74698571D01*
X176966666Y-74746190D01*
X176585714Y-74746190D01*
X178109523Y-75222380D02*
X177538095Y-75222380D01*
X177823809Y-75222380D02*
X177823809Y-74222380D01*
X177728571Y-74365238D01*
X177633333Y-74460476D01*
X177538095Y-74508095D01*
X178585714Y-75222380D02*
X178776190Y-75222380D01*
X178871428Y-75174761D01*
X178919047Y-75127142D01*
X179014285Y-74984285D01*
X179061904Y-74793809D01*
X179061904Y-74412857D01*
X179014285Y-74317619D01*
X178966666Y-74270000D01*
X178871428Y-74222380D01*
X178680952Y-74222380D01*
X178585714Y-74270000D01*
X178538095Y-74317619D01*
X178490476Y-74412857D01*
X178490476Y-74650952D01*
X178538095Y-74746190D01*
X178585714Y-74793809D01*
X178680952Y-74841428D01*
X178871428Y-74841428D01*
X178966666Y-74793809D01*
X179014285Y-74746190D01*
X179061904Y-74650952D01*
%TO.C,C2*%
X139533333Y-118627142D02*
X139485714Y-118674761D01*
X139342857Y-118722380D01*
X139247619Y-118722380D01*
X139104761Y-118674761D01*
X139009523Y-118579523D01*
X138961904Y-118484285D01*
X138914285Y-118293809D01*
X138914285Y-118150952D01*
X138961904Y-117960476D01*
X139009523Y-117865238D01*
X139104761Y-117770000D01*
X139247619Y-117722380D01*
X139342857Y-117722380D01*
X139485714Y-117770000D01*
X139533333Y-117817619D01*
X139914285Y-117817619D02*
X139961904Y-117770000D01*
X140057142Y-117722380D01*
X140295238Y-117722380D01*
X140390476Y-117770000D01*
X140438095Y-117817619D01*
X140485714Y-117912857D01*
X140485714Y-118008095D01*
X140438095Y-118150952D01*
X139866666Y-118722380D01*
X140485714Y-118722380D01*
%TO.C,R11*%
X126357142Y-146342380D02*
X126023809Y-145866190D01*
X125785714Y-146342380D02*
X125785714Y-145342380D01*
X126166666Y-145342380D01*
X126261904Y-145390000D01*
X126309523Y-145437619D01*
X126357142Y-145532857D01*
X126357142Y-145675714D01*
X126309523Y-145770952D01*
X126261904Y-145818571D01*
X126166666Y-145866190D01*
X125785714Y-145866190D01*
X127309523Y-146342380D02*
X126738095Y-146342380D01*
X127023809Y-146342380D02*
X127023809Y-145342380D01*
X126928571Y-145485238D01*
X126833333Y-145580476D01*
X126738095Y-145628095D01*
X128261904Y-146342380D02*
X127690476Y-146342380D01*
X127976190Y-146342380D02*
X127976190Y-145342380D01*
X127880952Y-145485238D01*
X127785714Y-145580476D01*
X127690476Y-145628095D01*
%TO.C,R13*%
X139057142Y-146342380D02*
X138723809Y-145866190D01*
X138485714Y-146342380D02*
X138485714Y-145342380D01*
X138866666Y-145342380D01*
X138961904Y-145390000D01*
X139009523Y-145437619D01*
X139057142Y-145532857D01*
X139057142Y-145675714D01*
X139009523Y-145770952D01*
X138961904Y-145818571D01*
X138866666Y-145866190D01*
X138485714Y-145866190D01*
X140009523Y-146342380D02*
X139438095Y-146342380D01*
X139723809Y-146342380D02*
X139723809Y-145342380D01*
X139628571Y-145485238D01*
X139533333Y-145580476D01*
X139438095Y-145628095D01*
X140342857Y-145342380D02*
X140961904Y-145342380D01*
X140628571Y-145723333D01*
X140771428Y-145723333D01*
X140866666Y-145770952D01*
X140914285Y-145818571D01*
X140961904Y-145913809D01*
X140961904Y-146151904D01*
X140914285Y-146247142D01*
X140866666Y-146294761D01*
X140771428Y-146342380D01*
X140485714Y-146342380D01*
X140390476Y-146294761D01*
X140342857Y-146247142D01*
%TO.C,C3*%
X156407142Y-137326666D02*
X156454761Y-137374285D01*
X156502380Y-137517142D01*
X156502380Y-137612380D01*
X156454761Y-137755238D01*
X156359523Y-137850476D01*
X156264285Y-137898095D01*
X156073809Y-137945714D01*
X155930952Y-137945714D01*
X155740476Y-137898095D01*
X155645238Y-137850476D01*
X155550000Y-137755238D01*
X155502380Y-137612380D01*
X155502380Y-137517142D01*
X155550000Y-137374285D01*
X155597619Y-137326666D01*
X155502380Y-136993333D02*
X155502380Y-136374285D01*
X155883333Y-136707619D01*
X155883333Y-136564761D01*
X155930952Y-136469523D01*
X155978571Y-136421904D01*
X156073809Y-136374285D01*
X156311904Y-136374285D01*
X156407142Y-136421904D01*
X156454761Y-136469523D01*
X156502380Y-136564761D01*
X156502380Y-136850476D01*
X156454761Y-136945714D01*
X156407142Y-136993333D01*
%TO.C,R20*%
X183332380Y-89542857D02*
X182856190Y-89876190D01*
X183332380Y-90114285D02*
X182332380Y-90114285D01*
X182332380Y-89733333D01*
X182380000Y-89638095D01*
X182427619Y-89590476D01*
X182522857Y-89542857D01*
X182665714Y-89542857D01*
X182760952Y-89590476D01*
X182808571Y-89638095D01*
X182856190Y-89733333D01*
X182856190Y-90114285D01*
X182427619Y-89161904D02*
X182380000Y-89114285D01*
X182332380Y-89019047D01*
X182332380Y-88780952D01*
X182380000Y-88685714D01*
X182427619Y-88638095D01*
X182522857Y-88590476D01*
X182618095Y-88590476D01*
X182760952Y-88638095D01*
X183332380Y-89209523D01*
X183332380Y-88590476D01*
X182332380Y-87971428D02*
X182332380Y-87876190D01*
X182380000Y-87780952D01*
X182427619Y-87733333D01*
X182522857Y-87685714D01*
X182713333Y-87638095D01*
X182951428Y-87638095D01*
X183141904Y-87685714D01*
X183237142Y-87733333D01*
X183284761Y-87780952D01*
X183332380Y-87876190D01*
X183332380Y-87971428D01*
X183284761Y-88066666D01*
X183237142Y-88114285D01*
X183141904Y-88161904D01*
X182951428Y-88209523D01*
X182713333Y-88209523D01*
X182522857Y-88161904D01*
X182427619Y-88114285D01*
X182380000Y-88066666D01*
X182332380Y-87971428D01*
%TO.C,C1*%
X164145833Y-146247142D02*
X164098214Y-146294761D01*
X163955357Y-146342380D01*
X163860119Y-146342380D01*
X163717261Y-146294761D01*
X163622023Y-146199523D01*
X163574404Y-146104285D01*
X163526785Y-145913809D01*
X163526785Y-145770952D01*
X163574404Y-145580476D01*
X163622023Y-145485238D01*
X163717261Y-145390000D01*
X163860119Y-145342380D01*
X163955357Y-145342380D01*
X164098214Y-145390000D01*
X164145833Y-145437619D01*
X165098214Y-146342380D02*
X164526785Y-146342380D01*
X164812500Y-146342380D02*
X164812500Y-145342380D01*
X164717261Y-145485238D01*
X164622023Y-145580476D01*
X164526785Y-145628095D01*
%TO.C,C7*%
X170013333Y-80207142D02*
X169965714Y-80254761D01*
X169822857Y-80302380D01*
X169727619Y-80302380D01*
X169584761Y-80254761D01*
X169489523Y-80159523D01*
X169441904Y-80064285D01*
X169394285Y-79873809D01*
X169394285Y-79730952D01*
X169441904Y-79540476D01*
X169489523Y-79445238D01*
X169584761Y-79350000D01*
X169727619Y-79302380D01*
X169822857Y-79302380D01*
X169965714Y-79350000D01*
X170013333Y-79397619D01*
X170346666Y-79302380D02*
X171013333Y-79302380D01*
X170584761Y-80302380D01*
%TO.C,R3*%
X139533333Y-105702380D02*
X139200000Y-105226190D01*
X138961904Y-105702380D02*
X138961904Y-104702380D01*
X139342857Y-104702380D01*
X139438095Y-104750000D01*
X139485714Y-104797619D01*
X139533333Y-104892857D01*
X139533333Y-105035714D01*
X139485714Y-105130952D01*
X139438095Y-105178571D01*
X139342857Y-105226190D01*
X138961904Y-105226190D01*
X139866666Y-104702380D02*
X140485714Y-104702380D01*
X140152380Y-105083333D01*
X140295238Y-105083333D01*
X140390476Y-105130952D01*
X140438095Y-105178571D01*
X140485714Y-105273809D01*
X140485714Y-105511904D01*
X140438095Y-105607142D01*
X140390476Y-105654761D01*
X140295238Y-105702380D01*
X140009523Y-105702380D01*
X139914285Y-105654761D01*
X139866666Y-105607142D01*
%TO.C,JP1*%
X120212380Y-120213333D02*
X120926666Y-120213333D01*
X121069523Y-120260952D01*
X121164761Y-120356190D01*
X121212380Y-120499047D01*
X121212380Y-120594285D01*
X121212380Y-119737142D02*
X120212380Y-119737142D01*
X120212380Y-119356190D01*
X120260000Y-119260952D01*
X120307619Y-119213333D01*
X120402857Y-119165714D01*
X120545714Y-119165714D01*
X120640952Y-119213333D01*
X120688571Y-119260952D01*
X120736190Y-119356190D01*
X120736190Y-119737142D01*
X121212380Y-118213333D02*
X121212380Y-118784761D01*
X121212380Y-118499047D02*
X120212380Y-118499047D01*
X120355238Y-118594285D01*
X120450476Y-118689523D01*
X120498095Y-118784761D01*
%TO.C,D1*%
X151319404Y-152852380D02*
X151319404Y-151852380D01*
X151557500Y-151852380D01*
X151700357Y-151900000D01*
X151795595Y-151995238D01*
X151843214Y-152090476D01*
X151890833Y-152280952D01*
X151890833Y-152423809D01*
X151843214Y-152614285D01*
X151795595Y-152709523D01*
X151700357Y-152804761D01*
X151557500Y-152852380D01*
X151319404Y-152852380D01*
X152843214Y-152852380D02*
X152271785Y-152852380D01*
X152557500Y-152852380D02*
X152557500Y-151852380D01*
X152462261Y-151995238D01*
X152367023Y-152090476D01*
X152271785Y-152138095D01*
%TO.C,D2*%
X138961904Y-154092380D02*
X138961904Y-153092380D01*
X139200000Y-153092380D01*
X139342857Y-153140000D01*
X139438095Y-153235238D01*
X139485714Y-153330476D01*
X139533333Y-153520952D01*
X139533333Y-153663809D01*
X139485714Y-153854285D01*
X139438095Y-153949523D01*
X139342857Y-154044761D01*
X139200000Y-154092380D01*
X138961904Y-154092380D01*
X139914285Y-153187619D02*
X139961904Y-153140000D01*
X140057142Y-153092380D01*
X140295238Y-153092380D01*
X140390476Y-153140000D01*
X140438095Y-153187619D01*
X140485714Y-153282857D01*
X140485714Y-153378095D01*
X140438095Y-153520952D01*
X139866666Y-154092380D01*
X140485714Y-154092380D01*
%TO.C,R8*%
X164442380Y-137326666D02*
X163966190Y-137660000D01*
X164442380Y-137898095D02*
X163442380Y-137898095D01*
X163442380Y-137517142D01*
X163490000Y-137421904D01*
X163537619Y-137374285D01*
X163632857Y-137326666D01*
X163775714Y-137326666D01*
X163870952Y-137374285D01*
X163918571Y-137421904D01*
X163966190Y-137517142D01*
X163966190Y-137898095D01*
X163870952Y-136755238D02*
X163823333Y-136850476D01*
X163775714Y-136898095D01*
X163680476Y-136945714D01*
X163632857Y-136945714D01*
X163537619Y-136898095D01*
X163490000Y-136850476D01*
X163442380Y-136755238D01*
X163442380Y-136564761D01*
X163490000Y-136469523D01*
X163537619Y-136421904D01*
X163632857Y-136374285D01*
X163680476Y-136374285D01*
X163775714Y-136421904D01*
X163823333Y-136469523D01*
X163870952Y-136564761D01*
X163870952Y-136755238D01*
X163918571Y-136850476D01*
X163966190Y-136898095D01*
X164061428Y-136945714D01*
X164251904Y-136945714D01*
X164347142Y-136898095D01*
X164394761Y-136850476D01*
X164442380Y-136755238D01*
X164442380Y-136564761D01*
X164394761Y-136469523D01*
X164347142Y-136421904D01*
X164251904Y-136374285D01*
X164061428Y-136374285D01*
X163966190Y-136421904D01*
X163918571Y-136469523D01*
X163870952Y-136564761D01*
%TO.C,R1*%
X131913333Y-105702380D02*
X131580000Y-105226190D01*
X131341904Y-105702380D02*
X131341904Y-104702380D01*
X131722857Y-104702380D01*
X131818095Y-104750000D01*
X131865714Y-104797619D01*
X131913333Y-104892857D01*
X131913333Y-105035714D01*
X131865714Y-105130952D01*
X131818095Y-105178571D01*
X131722857Y-105226190D01*
X131341904Y-105226190D01*
X132865714Y-105702380D02*
X132294285Y-105702380D01*
X132580000Y-105702380D02*
X132580000Y-104702380D01*
X132484761Y-104845238D01*
X132389523Y-104940476D01*
X132294285Y-104988095D01*
%TO.C,C5*%
X170537142Y-90427695D02*
X170584761Y-90475314D01*
X170632380Y-90618171D01*
X170632380Y-90713409D01*
X170584761Y-90856267D01*
X170489523Y-90951505D01*
X170394285Y-90999124D01*
X170203809Y-91046743D01*
X170060952Y-91046743D01*
X169870476Y-90999124D01*
X169775238Y-90951505D01*
X169680000Y-90856267D01*
X169632380Y-90713409D01*
X169632380Y-90618171D01*
X169680000Y-90475314D01*
X169727619Y-90427695D01*
X169632380Y-89522933D02*
X169632380Y-89999124D01*
X170108571Y-90046743D01*
X170060952Y-89999124D01*
X170013333Y-89903886D01*
X170013333Y-89665790D01*
X170060952Y-89570552D01*
X170108571Y-89522933D01*
X170203809Y-89475314D01*
X170441904Y-89475314D01*
X170537142Y-89522933D01*
X170584761Y-89570552D01*
X170632380Y-89665790D01*
X170632380Y-89903886D01*
X170584761Y-89999124D01*
X170537142Y-90046743D01*
%TO.C,R9*%
X169522380Y-137326666D02*
X169046190Y-137660000D01*
X169522380Y-137898095D02*
X168522380Y-137898095D01*
X168522380Y-137517142D01*
X168570000Y-137421904D01*
X168617619Y-137374285D01*
X168712857Y-137326666D01*
X168855714Y-137326666D01*
X168950952Y-137374285D01*
X168998571Y-137421904D01*
X169046190Y-137517142D01*
X169046190Y-137898095D01*
X169522380Y-136850476D02*
X169522380Y-136660000D01*
X169474761Y-136564761D01*
X169427142Y-136517142D01*
X169284285Y-136421904D01*
X169093809Y-136374285D01*
X168712857Y-136374285D01*
X168617619Y-136421904D01*
X168570000Y-136469523D01*
X168522380Y-136564761D01*
X168522380Y-136755238D01*
X168570000Y-136850476D01*
X168617619Y-136898095D01*
X168712857Y-136945714D01*
X168950952Y-136945714D01*
X169046190Y-136898095D01*
X169093809Y-136850476D01*
X169141428Y-136755238D01*
X169141428Y-136564761D01*
X169093809Y-136469523D01*
X169046190Y-136421904D01*
X168950952Y-136374285D01*
%TO.C,R14*%
X164457142Y-75222380D02*
X164123809Y-74746190D01*
X163885714Y-75222380D02*
X163885714Y-74222380D01*
X164266666Y-74222380D01*
X164361904Y-74270000D01*
X164409523Y-74317619D01*
X164457142Y-74412857D01*
X164457142Y-74555714D01*
X164409523Y-74650952D01*
X164361904Y-74698571D01*
X164266666Y-74746190D01*
X163885714Y-74746190D01*
X165409523Y-75222380D02*
X164838095Y-75222380D01*
X165123809Y-75222380D02*
X165123809Y-74222380D01*
X165028571Y-74365238D01*
X164933333Y-74460476D01*
X164838095Y-74508095D01*
X166266666Y-74555714D02*
X166266666Y-75222380D01*
X166028571Y-74174761D02*
X165790476Y-74889047D01*
X166409523Y-74889047D01*
%TO.C,R5*%
X139533333Y-120942380D02*
X139200000Y-120466190D01*
X138961904Y-120942380D02*
X138961904Y-119942380D01*
X139342857Y-119942380D01*
X139438095Y-119990000D01*
X139485714Y-120037619D01*
X139533333Y-120132857D01*
X139533333Y-120275714D01*
X139485714Y-120370952D01*
X139438095Y-120418571D01*
X139342857Y-120466190D01*
X138961904Y-120466190D01*
X140438095Y-119942380D02*
X139961904Y-119942380D01*
X139914285Y-120418571D01*
X139961904Y-120370952D01*
X140057142Y-120323333D01*
X140295238Y-120323333D01*
X140390476Y-120370952D01*
X140438095Y-120418571D01*
X140485714Y-120513809D01*
X140485714Y-120751904D01*
X140438095Y-120847142D01*
X140390476Y-120894761D01*
X140295238Y-120942380D01*
X140057142Y-120942380D01*
X139961904Y-120894761D01*
X139914285Y-120847142D01*
%TO.C,R15*%
X173982142Y-110307380D02*
X173648809Y-109831190D01*
X173410714Y-110307380D02*
X173410714Y-109307380D01*
X173791666Y-109307380D01*
X173886904Y-109355000D01*
X173934523Y-109402619D01*
X173982142Y-109497857D01*
X173982142Y-109640714D01*
X173934523Y-109735952D01*
X173886904Y-109783571D01*
X173791666Y-109831190D01*
X173410714Y-109831190D01*
X174934523Y-110307380D02*
X174363095Y-110307380D01*
X174648809Y-110307380D02*
X174648809Y-109307380D01*
X174553571Y-109450238D01*
X174458333Y-109545476D01*
X174363095Y-109593095D01*
X175839285Y-109307380D02*
X175363095Y-109307380D01*
X175315476Y-109783571D01*
X175363095Y-109735952D01*
X175458333Y-109688333D01*
X175696428Y-109688333D01*
X175791666Y-109735952D01*
X175839285Y-109783571D01*
X175886904Y-109878809D01*
X175886904Y-110116904D01*
X175839285Y-110212142D01*
X175791666Y-110259761D01*
X175696428Y-110307380D01*
X175458333Y-110307380D01*
X175363095Y-110259761D01*
X175315476Y-110212142D01*
%TO.C,R4*%
X139533333Y-114752380D02*
X139200000Y-114276190D01*
X138961904Y-114752380D02*
X138961904Y-113752380D01*
X139342857Y-113752380D01*
X139438095Y-113800000D01*
X139485714Y-113847619D01*
X139533333Y-113942857D01*
X139533333Y-114085714D01*
X139485714Y-114180952D01*
X139438095Y-114228571D01*
X139342857Y-114276190D01*
X138961904Y-114276190D01*
X140390476Y-114085714D02*
X140390476Y-114752380D01*
X140152380Y-113704761D02*
X139914285Y-114419047D01*
X140533333Y-114419047D01*
D11*
%TO.C,U1*%
X153972380Y-113604523D02*
X153972380Y-114632619D01*
X154032857Y-114753571D01*
X154093333Y-114814047D01*
X154214285Y-114874523D01*
X154456190Y-114874523D01*
X154577142Y-114814047D01*
X154637619Y-114753571D01*
X154698095Y-114632619D01*
X154698095Y-113604523D01*
X155968095Y-114874523D02*
X155242380Y-114874523D01*
X155605238Y-114874523D02*
X155605238Y-113604523D01*
X155484285Y-113785952D01*
X155363333Y-113906904D01*
X155242380Y-113967380D01*
D10*
%TO.C,R7*%
X151422380Y-137326666D02*
X150946190Y-137660000D01*
X151422380Y-137898095D02*
X150422380Y-137898095D01*
X150422380Y-137517142D01*
X150470000Y-137421904D01*
X150517619Y-137374285D01*
X150612857Y-137326666D01*
X150755714Y-137326666D01*
X150850952Y-137374285D01*
X150898571Y-137421904D01*
X150946190Y-137517142D01*
X150946190Y-137898095D01*
X150422380Y-136993333D02*
X150422380Y-136326666D01*
X151422380Y-136755238D01*
D11*
%TO.C,JP2*%
X172024523Y-134408333D02*
X172931666Y-134408333D01*
X173113095Y-134468809D01*
X173234047Y-134589761D01*
X173294523Y-134771190D01*
X173294523Y-134892142D01*
X173294523Y-133803571D02*
X172024523Y-133803571D01*
X172024523Y-133319761D01*
X172085000Y-133198809D01*
X172145476Y-133138333D01*
X172266428Y-133077857D01*
X172447857Y-133077857D01*
X172568809Y-133138333D01*
X172629285Y-133198809D01*
X172689761Y-133319761D01*
X172689761Y-133803571D01*
X172145476Y-132594047D02*
X172085000Y-132533571D01*
X172024523Y-132412619D01*
X172024523Y-132110238D01*
X172085000Y-131989285D01*
X172145476Y-131928809D01*
X172266428Y-131868333D01*
X172387380Y-131868333D01*
X172568809Y-131928809D01*
X173294523Y-132654523D01*
X173294523Y-131868333D01*
D10*
%TO.C,R6*%
X153663333Y-150312380D02*
X153330000Y-149836190D01*
X153091904Y-150312380D02*
X153091904Y-149312380D01*
X153472857Y-149312380D01*
X153568095Y-149360000D01*
X153615714Y-149407619D01*
X153663333Y-149502857D01*
X153663333Y-149645714D01*
X153615714Y-149740952D01*
X153568095Y-149788571D01*
X153472857Y-149836190D01*
X153091904Y-149836190D01*
X154520476Y-149312380D02*
X154330000Y-149312380D01*
X154234761Y-149360000D01*
X154187142Y-149407619D01*
X154091904Y-149550476D01*
X154044285Y-149740952D01*
X154044285Y-150121904D01*
X154091904Y-150217142D01*
X154139523Y-150264761D01*
X154234761Y-150312380D01*
X154425238Y-150312380D01*
X154520476Y-150264761D01*
X154568095Y-150217142D01*
X154615714Y-150121904D01*
X154615714Y-149883809D01*
X154568095Y-149788571D01*
X154520476Y-149740952D01*
X154425238Y-149693333D01*
X154234761Y-149693333D01*
X154139523Y-149740952D01*
X154091904Y-149788571D01*
X154044285Y-149883809D01*
%TO.C,R17*%
X131102380Y-137802857D02*
X130626190Y-138136190D01*
X131102380Y-138374285D02*
X130102380Y-138374285D01*
X130102380Y-137993333D01*
X130150000Y-137898095D01*
X130197619Y-137850476D01*
X130292857Y-137802857D01*
X130435714Y-137802857D01*
X130530952Y-137850476D01*
X130578571Y-137898095D01*
X130626190Y-137993333D01*
X130626190Y-138374285D01*
X131102380Y-136850476D02*
X131102380Y-137421904D01*
X131102380Y-137136190D02*
X130102380Y-137136190D01*
X130245238Y-137231428D01*
X130340476Y-137326666D01*
X130388095Y-137421904D01*
X130102380Y-136517142D02*
X130102380Y-135850476D01*
X131102380Y-136279047D01*
%TO.C,R10*%
X155392380Y-87002857D02*
X154916190Y-87336190D01*
X155392380Y-87574285D02*
X154392380Y-87574285D01*
X154392380Y-87193333D01*
X154440000Y-87098095D01*
X154487619Y-87050476D01*
X154582857Y-87002857D01*
X154725714Y-87002857D01*
X154820952Y-87050476D01*
X154868571Y-87098095D01*
X154916190Y-87193333D01*
X154916190Y-87574285D01*
X155392380Y-86050476D02*
X155392380Y-86621904D01*
X155392380Y-86336190D02*
X154392380Y-86336190D01*
X154535238Y-86431428D01*
X154630476Y-86526666D01*
X154678095Y-86621904D01*
X154392380Y-85431428D02*
X154392380Y-85336190D01*
X154440000Y-85240952D01*
X154487619Y-85193333D01*
X154582857Y-85145714D01*
X154773333Y-85098095D01*
X155011428Y-85098095D01*
X155201904Y-85145714D01*
X155297142Y-85193333D01*
X155344761Y-85240952D01*
X155392380Y-85336190D01*
X155392380Y-85431428D01*
X155344761Y-85526666D01*
X155297142Y-85574285D01*
X155201904Y-85621904D01*
X155011428Y-85669523D01*
X154773333Y-85669523D01*
X154582857Y-85621904D01*
X154487619Y-85574285D01*
X154440000Y-85526666D01*
X154392380Y-85431428D01*
%TO.C,C6*%
X144027142Y-137326666D02*
X144074761Y-137374285D01*
X144122380Y-137517142D01*
X144122380Y-137612380D01*
X144074761Y-137755238D01*
X143979523Y-137850476D01*
X143884285Y-137898095D01*
X143693809Y-137945714D01*
X143550952Y-137945714D01*
X143360476Y-137898095D01*
X143265238Y-137850476D01*
X143170000Y-137755238D01*
X143122380Y-137612380D01*
X143122380Y-137517142D01*
X143170000Y-137374285D01*
X143217619Y-137326666D01*
X143122380Y-136469523D02*
X143122380Y-136660000D01*
X143170000Y-136755238D01*
X143217619Y-136802857D01*
X143360476Y-136898095D01*
X143550952Y-136945714D01*
X143931904Y-136945714D01*
X144027142Y-136898095D01*
X144074761Y-136850476D01*
X144122380Y-136755238D01*
X144122380Y-136564761D01*
X144074761Y-136469523D01*
X144027142Y-136421904D01*
X143931904Y-136374285D01*
X143693809Y-136374285D01*
X143598571Y-136421904D01*
X143550952Y-136469523D01*
X143503333Y-136564761D01*
X143503333Y-136755238D01*
X143550952Y-136850476D01*
X143598571Y-136898095D01*
X143693809Y-136945714D01*
%TO.C,R2*%
X131913333Y-110782380D02*
X131580000Y-110306190D01*
X131341904Y-110782380D02*
X131341904Y-109782380D01*
X131722857Y-109782380D01*
X131818095Y-109830000D01*
X131865714Y-109877619D01*
X131913333Y-109972857D01*
X131913333Y-110115714D01*
X131865714Y-110210952D01*
X131818095Y-110258571D01*
X131722857Y-110306190D01*
X131341904Y-110306190D01*
X132294285Y-109877619D02*
X132341904Y-109830000D01*
X132437142Y-109782380D01*
X132675238Y-109782380D01*
X132770476Y-109830000D01*
X132818095Y-109877619D01*
X132865714Y-109972857D01*
X132865714Y-110068095D01*
X132818095Y-110210952D01*
X132246666Y-110782380D01*
X132865714Y-110782380D01*
%TO.C,C4*%
X136993333Y-92907142D02*
X136945714Y-92954761D01*
X136802857Y-93002380D01*
X136707619Y-93002380D01*
X136564761Y-92954761D01*
X136469523Y-92859523D01*
X136421904Y-92764285D01*
X136374285Y-92573809D01*
X136374285Y-92430952D01*
X136421904Y-92240476D01*
X136469523Y-92145238D01*
X136564761Y-92050000D01*
X136707619Y-92002380D01*
X136802857Y-92002380D01*
X136945714Y-92050000D01*
X136993333Y-92097619D01*
X137850476Y-92335714D02*
X137850476Y-93002380D01*
X137612380Y-91954761D02*
X137374285Y-92669047D01*
X137993333Y-92669047D01*
%TO.C,R18*%
X136182380Y-137802857D02*
X135706190Y-138136190D01*
X136182380Y-138374285D02*
X135182380Y-138374285D01*
X135182380Y-137993333D01*
X135230000Y-137898095D01*
X135277619Y-137850476D01*
X135372857Y-137802857D01*
X135515714Y-137802857D01*
X135610952Y-137850476D01*
X135658571Y-137898095D01*
X135706190Y-137993333D01*
X135706190Y-138374285D01*
X136182380Y-136850476D02*
X136182380Y-137421904D01*
X136182380Y-137136190D02*
X135182380Y-137136190D01*
X135325238Y-137231428D01*
X135420476Y-137326666D01*
X135468095Y-137421904D01*
X135610952Y-136279047D02*
X135563333Y-136374285D01*
X135515714Y-136421904D01*
X135420476Y-136469523D01*
X135372857Y-136469523D01*
X135277619Y-136421904D01*
X135230000Y-136374285D01*
X135182380Y-136279047D01*
X135182380Y-136088571D01*
X135230000Y-135993333D01*
X135277619Y-135945714D01*
X135372857Y-135898095D01*
X135420476Y-135898095D01*
X135515714Y-135945714D01*
X135563333Y-135993333D01*
X135610952Y-136088571D01*
X135610952Y-136279047D01*
X135658571Y-136374285D01*
X135706190Y-136421904D01*
X135801428Y-136469523D01*
X135991904Y-136469523D01*
X136087142Y-136421904D01*
X136134761Y-136374285D01*
X136182380Y-136279047D01*
X136182380Y-136088571D01*
X136134761Y-135993333D01*
X136087142Y-135945714D01*
X135991904Y-135898095D01*
X135801428Y-135898095D01*
X135706190Y-135945714D01*
X135658571Y-135993333D01*
X135610952Y-136088571D01*
%TO.C,R16*%
X161917142Y-152852380D02*
X161583809Y-152376190D01*
X161345714Y-152852380D02*
X161345714Y-151852380D01*
X161726666Y-151852380D01*
X161821904Y-151900000D01*
X161869523Y-151947619D01*
X161917142Y-152042857D01*
X161917142Y-152185714D01*
X161869523Y-152280952D01*
X161821904Y-152328571D01*
X161726666Y-152376190D01*
X161345714Y-152376190D01*
X162869523Y-152852380D02*
X162298095Y-152852380D01*
X162583809Y-152852380D02*
X162583809Y-151852380D01*
X162488571Y-151995238D01*
X162393333Y-152090476D01*
X162298095Y-152138095D01*
X163726666Y-151852380D02*
X163536190Y-151852380D01*
X163440952Y-151900000D01*
X163393333Y-151947619D01*
X163298095Y-152090476D01*
X163250476Y-152280952D01*
X163250476Y-152661904D01*
X163298095Y-152757142D01*
X163345714Y-152804761D01*
X163440952Y-152852380D01*
X163631428Y-152852380D01*
X163726666Y-152804761D01*
X163774285Y-152757142D01*
X163821904Y-152661904D01*
X163821904Y-152423809D01*
X163774285Y-152328571D01*
X163726666Y-152280952D01*
X163631428Y-152233333D01*
X163440952Y-152233333D01*
X163345714Y-152280952D01*
X163298095Y-152328571D01*
X163250476Y-152423809D01*
%TO.C,R12*%
X149202380Y-137802857D02*
X148726190Y-138136190D01*
X149202380Y-138374285D02*
X148202380Y-138374285D01*
X148202380Y-137993333D01*
X148250000Y-137898095D01*
X148297619Y-137850476D01*
X148392857Y-137802857D01*
X148535714Y-137802857D01*
X148630952Y-137850476D01*
X148678571Y-137898095D01*
X148726190Y-137993333D01*
X148726190Y-138374285D01*
X149202380Y-136850476D02*
X149202380Y-137421904D01*
X149202380Y-137136190D02*
X148202380Y-137136190D01*
X148345238Y-137231428D01*
X148440476Y-137326666D01*
X148488095Y-137421904D01*
X148297619Y-136469523D02*
X148250000Y-136421904D01*
X148202380Y-136326666D01*
X148202380Y-136088571D01*
X148250000Y-135993333D01*
X148297619Y-135945714D01*
X148392857Y-135898095D01*
X148488095Y-135898095D01*
X148630952Y-135945714D01*
X149202380Y-136517142D01*
X149202380Y-135898095D01*
D12*
%TO.C,R19*%
X176370000Y-76900000D02*
X176370000Y-75500000D01*
X179230000Y-76900000D02*
X176370000Y-76900000D01*
X176370000Y-75500000D02*
X179230000Y-75500000D01*
X179230000Y-75500000D02*
X179230000Y-76900000D01*
%TO.C,C2*%
X141060000Y-117540000D02*
X138340000Y-117540000D01*
X141060000Y-116140000D02*
X138340000Y-116140000D01*
X141071599Y-117525799D02*
G75*
G03*
X141061029Y-116133456I-1371598J685799D01*
G01*
X138328400Y-116128801D02*
G75*
G03*
X138328213Y-117550837I1371600J-711199D01*
G01*
%TO.C,R11*%
X125570000Y-148020000D02*
X125570000Y-146620000D01*
X125570000Y-146620000D02*
X128430000Y-146620000D01*
X128430000Y-146620000D02*
X128430000Y-148020000D01*
X128430000Y-148020000D02*
X125570000Y-148020000D01*
%TO.C,R13*%
X141130000Y-148020000D02*
X138270000Y-148020000D01*
X138270000Y-148020000D02*
X138270000Y-146620000D01*
X141130000Y-146620000D02*
X141130000Y-148020000D01*
X138270000Y-146620000D02*
X141130000Y-146620000D01*
%TO.C,C3*%
X156780000Y-138520000D02*
X156780000Y-135800000D01*
X158180000Y-138520000D02*
X158180000Y-135800000D01*
X156794201Y-138531599D02*
G75*
G03*
X158186544Y-138521029I685799J1371598D01*
G01*
X158191199Y-135788400D02*
G75*
G03*
X156769163Y-135788213I-711199J-1371600D01*
G01*
%TO.C,R20*%
X175240000Y-87470000D02*
X176640000Y-87470000D01*
X175240000Y-90330000D02*
X175240000Y-87470000D01*
X176640000Y-87470000D02*
X176640000Y-90330000D01*
X176640000Y-90330000D02*
X175240000Y-90330000D01*
%TO.C,C1*%
X162952500Y-146620000D02*
X165672500Y-146620000D01*
X162952500Y-148020000D02*
X165672500Y-148020000D01*
X165684100Y-148031199D02*
G75*
G03*
X165684287Y-146609163I-1371600J711199D01*
G01*
X162940901Y-146634201D02*
G75*
G03*
X162951471Y-148026544I1371598J-685799D01*
G01*
%TO.C,C7*%
X163740000Y-81980000D02*
X166460000Y-81980000D01*
X163740000Y-80580000D02*
X166460000Y-80580000D01*
X163728401Y-80594201D02*
G75*
G03*
X163738971Y-81986544I1371598J-685799D01*
G01*
X166471600Y-81991199D02*
G75*
G03*
X166471787Y-80569163I-1371600J711199D01*
G01*
%TO.C,R3*%
X138270000Y-107380000D02*
X138270000Y-105980000D01*
X141130000Y-105980000D02*
X141130000Y-107380000D01*
X138270000Y-105980000D02*
X141130000Y-105980000D01*
X141130000Y-107380000D02*
X138270000Y-107380000D01*
D13*
%TO.C,JP1*%
X123160000Y-122790000D02*
X123160000Y-124280000D01*
X127220000Y-124280000D02*
X128960000Y-124280000D01*
X123160000Y-114480000D02*
X124500000Y-114480000D01*
X123160000Y-115970000D02*
X123160000Y-114480000D01*
X128960000Y-124280000D02*
X128960000Y-114480000D01*
X123160000Y-122790000D02*
X121960000Y-122790000D01*
X123160000Y-124280000D02*
X124500000Y-124280000D01*
X128960000Y-114480000D02*
X127220000Y-114480000D01*
%TO.C,D1*%
X153200000Y-154205000D02*
X150915000Y-154205000D01*
X150915000Y-155675000D02*
X153200000Y-155675000D01*
X150915000Y-154205000D02*
X150915000Y-155675000D01*
%TO.C,D2*%
X140400000Y-155540000D02*
X138550000Y-155540000D01*
X140400000Y-154340000D02*
X138550000Y-154340000D01*
X138550000Y-154340000D02*
X138550000Y-155540000D01*
D12*
%TO.C,R8*%
X161860000Y-138590000D02*
X161860000Y-135730000D01*
X163260000Y-138590000D02*
X161860000Y-138590000D01*
X161860000Y-135730000D02*
X163260000Y-135730000D01*
X163260000Y-135730000D02*
X163260000Y-138590000D01*
%TO.C,R1*%
X133510000Y-105980000D02*
X133510000Y-107380000D01*
X130650000Y-105980000D02*
X133510000Y-105980000D01*
X130650000Y-107380000D02*
X130650000Y-105980000D01*
X133510000Y-107380000D02*
X130650000Y-107380000D01*
%TO.C,C5*%
X165800000Y-90260000D02*
X165800000Y-87540000D01*
X164400000Y-90260000D02*
X164400000Y-87540000D01*
X165811199Y-87528400D02*
G75*
G03*
X164389163Y-87528213I-711199J-1371600D01*
G01*
X164414201Y-90271599D02*
G75*
G03*
X165806544Y-90261029I685799J1371598D01*
G01*
%TO.C,R9*%
X168340000Y-138590000D02*
X166940000Y-138590000D01*
X168340000Y-135730000D02*
X168340000Y-138590000D01*
X166940000Y-138590000D02*
X166940000Y-135730000D01*
X166940000Y-135730000D02*
X168340000Y-135730000D01*
%TO.C,R14*%
X163670000Y-75500000D02*
X166530000Y-75500000D01*
X163670000Y-76900000D02*
X163670000Y-75500000D01*
X166530000Y-75500000D02*
X166530000Y-76900000D01*
X166530000Y-76900000D02*
X163670000Y-76900000D01*
%TO.C,R5*%
X141130000Y-121220000D02*
X141130000Y-122620000D01*
X138270000Y-121220000D02*
X141130000Y-121220000D01*
X141130000Y-122620000D02*
X138270000Y-122620000D01*
X138270000Y-122620000D02*
X138270000Y-121220000D01*
%TO.C,R15*%
X173830000Y-112460000D02*
X173830000Y-111060000D01*
X176690000Y-112460000D02*
X173830000Y-112460000D01*
X176690000Y-111060000D02*
X176690000Y-112460000D01*
X173830000Y-111060000D02*
X176690000Y-111060000D01*
%TO.C,R4*%
X138270000Y-112460000D02*
X138270000Y-111060000D01*
X141130000Y-112460000D02*
X138270000Y-112460000D01*
X141130000Y-111060000D02*
X141130000Y-112460000D01*
X138270000Y-111060000D02*
X141130000Y-111060000D01*
D14*
%TO.C,U1*%
X155230000Y-110010000D02*
G75*
G03*
X155230000Y-110010000I-125000J0D01*
G01*
D12*
%TO.C,R7*%
X153100000Y-135730000D02*
X153100000Y-138590000D01*
X151700000Y-135730000D02*
X153100000Y-135730000D01*
X153100000Y-138590000D02*
X151700000Y-138590000D01*
X151700000Y-138590000D02*
X151700000Y-135730000D01*
%TO.C,JP2*%
X173915000Y-119305000D02*
X173915000Y-133350000D01*
X176605000Y-119305000D02*
X173915000Y-119305000D01*
X175260000Y-134695000D02*
X176605000Y-134695000D01*
X176605000Y-134695000D02*
X176605000Y-119305000D01*
%TO.C,R6*%
X150970000Y-148020000D02*
X150970000Y-146620000D01*
X153830000Y-146620000D02*
X153830000Y-148020000D01*
X153830000Y-148020000D02*
X150970000Y-148020000D01*
X150970000Y-146620000D02*
X153830000Y-146620000D01*
%TO.C,R17*%
X131380000Y-138590000D02*
X131380000Y-135730000D01*
X131380000Y-135730000D02*
X132780000Y-135730000D01*
X132780000Y-138590000D02*
X131380000Y-138590000D01*
X132780000Y-135730000D02*
X132780000Y-138590000D01*
%TO.C,R10*%
X156780000Y-90330000D02*
X156780000Y-87470000D01*
X158180000Y-87470000D02*
X158180000Y-90330000D01*
X158180000Y-90330000D02*
X156780000Y-90330000D01*
X156780000Y-87470000D02*
X158180000Y-87470000D01*
%TO.C,C6*%
X141540000Y-135800000D02*
X141540000Y-138520000D01*
X142940000Y-135800000D02*
X142940000Y-138520000D01*
X141528801Y-138531600D02*
G75*
G03*
X142950837Y-138531787I711199J1371600D01*
G01*
X142925799Y-135788401D02*
G75*
G03*
X141533456Y-135798971I-685799J-1371598D01*
G01*
%TO.C,R2*%
X133510000Y-111060000D02*
X133510000Y-112460000D01*
X130650000Y-111060000D02*
X133510000Y-111060000D01*
X133510000Y-112460000D02*
X130650000Y-112460000D01*
X130650000Y-112460000D02*
X130650000Y-111060000D01*
%TO.C,C4*%
X138340000Y-94680000D02*
X141060000Y-94680000D01*
X138340000Y-93280000D02*
X141060000Y-93280000D01*
X141071600Y-94691199D02*
G75*
G03*
X141071787Y-93269163I-1371600J711199D01*
G01*
X138328401Y-93294201D02*
G75*
G03*
X138338971Y-94686544I1371598J-685799D01*
G01*
%TO.C,R18*%
X137860000Y-138590000D02*
X136460000Y-138590000D01*
X137860000Y-135730000D02*
X137860000Y-138590000D01*
X136460000Y-135730000D02*
X137860000Y-135730000D01*
X136460000Y-138590000D02*
X136460000Y-135730000D01*
%TO.C,R16*%
X162882500Y-154240000D02*
X165742500Y-154240000D01*
X162882500Y-155640000D02*
X162882500Y-154240000D01*
X165742500Y-155640000D02*
X162882500Y-155640000D01*
X165742500Y-154240000D02*
X165742500Y-155640000D01*
%TO.C,R12*%
X146620000Y-138590000D02*
X146620000Y-135730000D01*
X148020000Y-135730000D02*
X148020000Y-138590000D01*
X148020000Y-138590000D02*
X146620000Y-138590000D01*
X146620000Y-135730000D02*
X148020000Y-135730000D01*
%TD*%
M02*
