%TF.GenerationSoftware,KiCad,Pcbnew,(6.0.7)*%
%TF.CreationDate,2022-08-17T17:24:52+08:00*%
%TF.ProjectId,asdfgg,61736466-6767-42e6-9b69-6361645f7063,rev?*%
%TF.SameCoordinates,Original*%
%TF.FileFunction,Profile,NP*%
%FSLAX46Y46*%
G04 Gerber Fmt 4.6, Leading zero omitted, Abs format (unit mm)*
G04 Created by KiCad (PCBNEW (6.0.7)) date 2022-08-17 17:24:52*
%MOMM*%
%LPD*%
G01*
G04 APERTURE LIST*
%TA.AperFunction,Profile*%
%ADD10C,0.100000*%
%TD*%
G04 APERTURE END LIST*
D10*
X129540000Y-126365000D02*
X125095000Y-126365000D01*
X129540000Y-125730000D02*
X129540000Y-126365000D01*
X130810000Y-125730000D02*
X130810000Y-126365000D01*
X133350000Y-135255000D02*
X133350000Y-137160000D01*
X132080000Y-135255000D02*
X133350000Y-135255000D01*
X132080000Y-123190000D02*
X132080000Y-135255000D01*
X133350000Y-123190000D02*
X132080000Y-123190000D01*
X129540000Y-125730000D02*
X129540000Y-122555000D01*
X130810000Y-122555000D02*
X130810000Y-125730000D01*
X129540000Y-122555000D02*
X130810000Y-122555000D01*
X130810000Y-113030000D02*
X129540000Y-113030000D01*
X130810000Y-121285000D02*
X130810000Y-113030000D01*
X129540000Y-121285000D02*
X130810000Y-121285000D01*
X129540000Y-113030000D02*
X129540000Y-121285000D01*
X165735000Y-86995000D02*
X166370000Y-86995000D01*
X167005000Y-87630000D02*
X167005000Y-86995000D01*
X166370000Y-87630000D02*
X167005000Y-87630000D01*
X166370000Y-86995000D02*
X166370000Y-87630000D01*
X167005000Y-86360000D02*
X165735000Y-85090000D01*
X167005000Y-86995000D02*
X167005000Y-86360000D01*
X165735000Y-85090000D02*
X165735000Y-86995000D01*
X139700000Y-95885000D02*
X139700000Y-95250000D01*
X154305000Y-110490000D02*
X154305000Y-109855000D01*
X139700000Y-95885000D02*
X154305000Y-110490000D01*
X154305000Y-108585000D02*
X154305000Y-109855000D01*
X156210000Y-108585000D02*
X154305000Y-108585000D01*
X142875000Y-95250000D02*
X156210000Y-108585000D01*
X139700000Y-95250000D02*
X142875000Y-95250000D01*
X158750000Y-107315000D02*
X160655000Y-105410000D01*
X158750000Y-105410000D02*
X158750000Y-107315000D01*
X160655000Y-105410000D02*
X158750000Y-105410000D01*
X168275000Y-97790000D02*
X168275000Y-88900000D01*
X173355000Y-102870000D02*
X168275000Y-97790000D01*
X175260000Y-100965000D02*
X173355000Y-102870000D01*
X175260000Y-90805000D02*
X175260000Y-100965000D01*
X174625000Y-90805000D02*
X175260000Y-90805000D01*
X174625000Y-88900000D02*
X174625000Y-90805000D01*
X168275000Y-88900000D02*
X174625000Y-88900000D01*
X165735000Y-96520000D02*
X165735000Y-90805000D01*
X158750000Y-103505000D02*
X165735000Y-96520000D01*
X159385000Y-104140000D02*
X158750000Y-103505000D01*
X161925000Y-104140000D02*
X159385000Y-104140000D01*
X167005000Y-99060000D02*
X161925000Y-104140000D01*
X167005000Y-88900000D02*
X167005000Y-99060000D01*
X166370000Y-88900000D02*
X167005000Y-88900000D01*
X166370000Y-90805000D02*
X166370000Y-88900000D01*
X165735000Y-90805000D02*
X166370000Y-90805000D01*
X167005000Y-82550000D02*
X167005000Y-77470000D01*
X177800000Y-77470000D02*
X167005000Y-77470000D01*
X177800000Y-86995000D02*
X177800000Y-77470000D01*
X168275000Y-86995000D02*
X177800000Y-86995000D01*
X168275000Y-86360000D02*
X168275000Y-86995000D01*
X165735000Y-83820000D02*
X168275000Y-86360000D01*
X165735000Y-82550000D02*
X165735000Y-83820000D01*
X167005000Y-82550000D02*
X165735000Y-82550000D01*
X163195000Y-81915000D02*
X153035000Y-81915000D01*
X163195000Y-82550000D02*
X163195000Y-81915000D01*
X163830000Y-82550000D02*
X163195000Y-82550000D01*
X163830000Y-88900000D02*
X163830000Y-82550000D01*
X158750000Y-88900000D02*
X163830000Y-88900000D01*
X158750000Y-86995000D02*
X158750000Y-88900000D01*
X156210000Y-86995000D02*
X158750000Y-86995000D01*
X156210000Y-88900000D02*
X156210000Y-86995000D01*
X155575000Y-88900000D02*
X156210000Y-88900000D01*
X153035000Y-86360000D02*
X155575000Y-88900000D01*
X153035000Y-81915000D02*
X153035000Y-86360000D01*
X158115000Y-102870000D02*
X158115000Y-90805000D01*
X164465000Y-96520000D02*
X158115000Y-102870000D01*
X164465000Y-90805000D02*
X164465000Y-96520000D01*
X158115000Y-90805000D02*
X164465000Y-90805000D01*
X167640000Y-99695000D02*
X163195000Y-104140000D01*
X168910000Y-99695000D02*
X167640000Y-99695000D01*
X170180000Y-100965000D02*
X168910000Y-99695000D01*
X167005000Y-104140000D02*
X170180000Y-100965000D01*
X163195000Y-104140000D02*
X167005000Y-104140000D01*
X161925000Y-105410000D02*
X158750000Y-108585000D01*
X165735000Y-105410000D02*
X161925000Y-105410000D01*
X160655000Y-110490000D02*
X165735000Y-105410000D01*
X160655000Y-109855000D02*
X160655000Y-110490000D01*
X160655000Y-109855000D02*
X160655000Y-108585000D01*
X158750000Y-108585000D02*
X160655000Y-108585000D01*
X170180000Y-102235000D02*
X161925000Y-110490000D01*
X172085000Y-104140000D02*
X170180000Y-102235000D01*
X165735000Y-110490000D02*
X172085000Y-104140000D01*
X161925000Y-110490000D02*
X165735000Y-110490000D01*
X172720000Y-104775000D02*
X167005000Y-110490000D01*
X177165000Y-109220000D02*
X172720000Y-104775000D01*
X177165000Y-110490000D02*
X177165000Y-109220000D01*
X167005000Y-110490000D02*
X177165000Y-110490000D01*
X175895000Y-118745000D02*
X175895000Y-113030000D01*
X177165000Y-118745000D02*
X175895000Y-118745000D01*
X177165000Y-113665000D02*
X177165000Y-118745000D01*
X176530000Y-113030000D02*
X177165000Y-113665000D01*
X175895000Y-113030000D02*
X176530000Y-113030000D01*
X170815000Y-116840000D02*
X167005000Y-113030000D01*
X170815000Y-118110000D02*
X170815000Y-116840000D01*
X173355000Y-120650000D02*
X170815000Y-118110000D01*
X173355000Y-118745000D02*
X173355000Y-120650000D01*
X174625000Y-118745000D02*
X173355000Y-118745000D01*
X174625000Y-113030000D02*
X174625000Y-118745000D01*
X167005000Y-113030000D02*
X174625000Y-113030000D01*
X165735000Y-113030000D02*
X161925000Y-113030000D01*
X169545000Y-116840000D02*
X165735000Y-113030000D01*
X169545000Y-118110000D02*
X169545000Y-116840000D01*
X173355000Y-121920000D02*
X169545000Y-118110000D01*
X173355000Y-124460000D02*
X173355000Y-121920000D01*
X161925000Y-113030000D02*
X173355000Y-124460000D01*
X171450000Y-127635000D02*
X158750000Y-114935000D01*
X173355000Y-127635000D02*
X171450000Y-127635000D01*
X173355000Y-125730000D02*
X173355000Y-127635000D01*
X160655000Y-113030000D02*
X173355000Y-125730000D01*
X160655000Y-114935000D02*
X160655000Y-113030000D01*
X158750000Y-114935000D02*
X160655000Y-114935000D01*
X163195000Y-124460000D02*
X163195000Y-135255000D01*
X158750000Y-120015000D02*
X163195000Y-124460000D01*
X158750000Y-116205000D02*
X158750000Y-120015000D01*
X167005000Y-124460000D02*
X158750000Y-116205000D01*
X167005000Y-135255000D02*
X167005000Y-124460000D01*
X163195000Y-135255000D02*
X167005000Y-135255000D01*
X153035000Y-146050000D02*
X153035000Y-139065000D01*
X168275000Y-146050000D02*
X153035000Y-146050000D01*
X169545000Y-144780000D02*
X168275000Y-146050000D01*
X169545000Y-139065000D02*
X169545000Y-144780000D01*
X153035000Y-139065000D02*
X169545000Y-139065000D01*
X139700000Y-145415000D02*
X144780000Y-140335000D01*
X139700000Y-146050000D02*
X139700000Y-145415000D01*
X151765000Y-146050000D02*
X139700000Y-146050000D01*
X151765000Y-139065000D02*
X151765000Y-146050000D01*
X151130000Y-139065000D02*
X151765000Y-139065000D01*
X149860000Y-140335000D02*
X151130000Y-139065000D01*
X144780000Y-140335000D02*
X149860000Y-140335000D01*
X158750000Y-121285000D02*
X158750000Y-136525000D01*
X161290000Y-123825000D02*
X158750000Y-121285000D01*
X161290000Y-124460000D02*
X161290000Y-123825000D01*
X161290000Y-137160000D02*
X161290000Y-124460000D01*
X159385000Y-137160000D02*
X161290000Y-137160000D01*
X158750000Y-136525000D02*
X159385000Y-137160000D01*
X153670000Y-136525000D02*
X156210000Y-133985000D01*
X156210000Y-137160000D02*
X156210000Y-133985000D01*
X154305000Y-137160000D02*
X156210000Y-137160000D01*
X153670000Y-136525000D02*
X154305000Y-137160000D01*
X156845000Y-132080000D02*
X156845000Y-120650000D01*
X153670000Y-135255000D02*
X156845000Y-132080000D01*
X153035000Y-135255000D02*
X153670000Y-135255000D01*
X153035000Y-124460000D02*
X153035000Y-135255000D01*
X156845000Y-120650000D02*
X153035000Y-124460000D01*
X156210000Y-120015000D02*
X156210000Y-116205000D01*
X151765000Y-124460000D02*
X156210000Y-120015000D01*
X151765000Y-135255000D02*
X151765000Y-124460000D01*
X147955000Y-135255000D02*
X151765000Y-135255000D01*
X147955000Y-124460000D02*
X147955000Y-135255000D01*
X156210000Y-116205000D02*
X147955000Y-124460000D01*
X146685000Y-135255000D02*
X146685000Y-125730000D01*
X137160000Y-135255000D02*
X146685000Y-135255000D01*
X146685000Y-125730000D02*
X137160000Y-135255000D01*
X133985000Y-137160000D02*
X133350000Y-137160000D01*
X156210000Y-114935000D02*
X133985000Y-137160000D01*
X152400000Y-114935000D02*
X156210000Y-114935000D01*
X144145000Y-123190000D02*
X152400000Y-114935000D01*
X133350000Y-123190000D02*
X144145000Y-123190000D01*
X139700000Y-120650000D02*
X139700000Y-118110000D01*
X145415000Y-120650000D02*
X139700000Y-120650000D01*
X153035000Y-113030000D02*
X145415000Y-120650000D01*
X149225000Y-113030000D02*
X153035000Y-113030000D01*
X144145000Y-118110000D02*
X149225000Y-113030000D01*
X139700000Y-118110000D02*
X144145000Y-118110000D01*
X132080000Y-121285000D02*
X132080000Y-113030000D01*
X137795000Y-121285000D02*
X132080000Y-121285000D01*
X137795000Y-115570000D02*
X137795000Y-121285000D01*
X145415000Y-115570000D02*
X137795000Y-115570000D01*
X147955000Y-113030000D02*
X145415000Y-115570000D01*
X132080000Y-113030000D02*
X147955000Y-113030000D01*
X132080000Y-110490000D02*
X132080000Y-107950000D01*
X147955000Y-110490000D02*
X132080000Y-110490000D01*
X145415000Y-107950000D02*
X147955000Y-110490000D01*
X132080000Y-107950000D02*
X145415000Y-107950000D01*
X120650000Y-126365000D02*
X121285000Y-126365000D01*
X120650000Y-123190000D02*
X120650000Y-126365000D01*
X120650000Y-123190000D02*
X118745000Y-123190000D01*
X130175000Y-107315000D02*
X125095000Y-107315000D01*
X130175000Y-111125000D02*
X130175000Y-107315000D01*
X125095000Y-111125000D02*
X130175000Y-111125000D01*
X125095000Y-107315000D02*
X125095000Y-111125000D01*
X121920000Y-111125000D02*
X121920000Y-107315000D01*
X123825000Y-111125000D02*
X121920000Y-111125000D01*
X123825000Y-107315000D02*
X123825000Y-111125000D01*
X121920000Y-107315000D02*
X123825000Y-107315000D01*
X121285000Y-126365000D02*
X123825000Y-126365000D01*
X118745000Y-111125000D02*
X118745000Y-123190000D01*
X120650000Y-111125000D02*
X118745000Y-111125000D01*
X120650000Y-107315000D02*
X120650000Y-111125000D01*
X121920000Y-106045000D02*
X120650000Y-107315000D01*
X123825000Y-106045000D02*
X121920000Y-106045000D01*
X123825000Y-105410000D02*
X123825000Y-106045000D01*
X172720000Y-70485000D02*
X116840000Y-70485000D01*
X177165000Y-74930000D02*
X172720000Y-70485000D01*
X179705000Y-74930000D02*
X177165000Y-74930000D01*
X179705000Y-86360000D02*
X179705000Y-74930000D01*
X179070000Y-86995000D02*
X179705000Y-86360000D01*
X177165000Y-88900000D02*
X179070000Y-86995000D01*
X177165000Y-100330000D02*
X177165000Y-88900000D01*
X176530000Y-100965000D02*
X177165000Y-100330000D01*
X173990000Y-103505000D02*
X176530000Y-100965000D01*
X179070000Y-108585000D02*
X173990000Y-103505000D01*
X179070000Y-109220000D02*
X179070000Y-108585000D01*
X179070000Y-135255000D02*
X179070000Y-109220000D01*
X177800000Y-135255000D02*
X179070000Y-135255000D01*
X173355000Y-135255000D02*
X177800000Y-135255000D01*
X173355000Y-128905000D02*
X173355000Y-135255000D01*
X171450000Y-128905000D02*
X173355000Y-128905000D01*
X168910000Y-126365000D02*
X171450000Y-128905000D01*
X168910000Y-137160000D02*
X168910000Y-126365000D01*
X170815000Y-139065000D02*
X168910000Y-137160000D01*
X170815000Y-144780000D02*
X170815000Y-139065000D01*
X167640000Y-147955000D02*
X170815000Y-144780000D01*
X166370000Y-147955000D02*
X167640000Y-147955000D01*
X166370000Y-156210000D02*
X166370000Y-147955000D01*
X117475000Y-156210000D02*
X166370000Y-156210000D01*
X116840000Y-155575000D02*
X117475000Y-156210000D01*
X108585000Y-147320000D02*
X116840000Y-155575000D01*
X108585000Y-78740000D02*
X108585000Y-147320000D01*
X116840000Y-70485000D02*
X108585000Y-78740000D01*
X137160000Y-89535000D02*
X125095000Y-89535000D01*
X137795000Y-90170000D02*
X137160000Y-89535000D01*
X137795000Y-95250000D02*
X137795000Y-90170000D01*
X153035000Y-110490000D02*
X137795000Y-95250000D01*
X149225000Y-110490000D02*
X153035000Y-110490000D01*
X144145000Y-105410000D02*
X149225000Y-110490000D01*
X125095000Y-105410000D02*
X144145000Y-105410000D01*
X125095000Y-89535000D02*
X125095000Y-105410000D01*
X125095000Y-145415000D02*
X125095000Y-126365000D01*
X125730000Y-146050000D02*
X125095000Y-145415000D01*
X137795000Y-146050000D02*
X125730000Y-146050000D01*
X143510000Y-140335000D02*
X137795000Y-146050000D01*
X132715000Y-140335000D02*
X143510000Y-140335000D01*
X130810000Y-140335000D02*
X132715000Y-140335000D01*
X130810000Y-126365000D02*
X130810000Y-140335000D01*
X123825000Y-148590000D02*
X123825000Y-145415000D01*
X125095000Y-148590000D02*
X123825000Y-148590000D01*
X117475000Y-84455000D02*
X117475000Y-125095000D01*
X137160000Y-84455000D02*
X117475000Y-84455000D01*
X156210000Y-103505000D02*
X137160000Y-84455000D01*
X156210000Y-104140000D02*
X156210000Y-103505000D01*
X156210000Y-107315000D02*
X156210000Y-104140000D01*
X137160000Y-88265000D02*
X156210000Y-107315000D01*
X123825000Y-88265000D02*
X137160000Y-88265000D01*
X123825000Y-105410000D02*
X123825000Y-88265000D01*
X123825000Y-145415000D02*
X123825000Y-126365000D01*
X151130000Y-148590000D02*
X125095000Y-148590000D01*
X151130000Y-150495000D02*
X151130000Y-148590000D01*
X149860000Y-151765000D02*
X151130000Y-150495000D01*
X121920000Y-151765000D02*
X149860000Y-151765000D01*
X117475000Y-147320000D02*
X121920000Y-151765000D01*
X117475000Y-125095000D02*
X117475000Y-147320000D01*
X116205000Y-83820000D02*
X116205000Y-83185000D01*
X137160000Y-83185000D02*
X116205000Y-83185000D01*
X156210000Y-102235000D02*
X137160000Y-83185000D01*
X156210000Y-90170000D02*
X156210000Y-102235000D01*
X155575000Y-90170000D02*
X156210000Y-90170000D01*
X151765000Y-86360000D02*
X155575000Y-90170000D01*
X151765000Y-80645000D02*
X151765000Y-86360000D01*
X163195000Y-80645000D02*
X151765000Y-80645000D01*
X163195000Y-74930000D02*
X163195000Y-80645000D01*
X175895000Y-74930000D02*
X163195000Y-74930000D01*
X172720000Y-71755000D02*
X175895000Y-74930000D01*
X116840000Y-71755000D02*
X172720000Y-71755000D01*
X109855000Y-78740000D02*
X116840000Y-71755000D01*
X109855000Y-147320000D02*
X109855000Y-78740000D01*
X116205000Y-153670000D02*
X109855000Y-147320000D01*
X117475000Y-153670000D02*
X116205000Y-153670000D01*
X164465000Y-153670000D02*
X117475000Y-153670000D01*
X164465000Y-148590000D02*
X164465000Y-153670000D01*
X152400000Y-148590000D02*
X164465000Y-148590000D01*
X152400000Y-150495000D02*
X152400000Y-148590000D01*
X149860000Y-153035000D02*
X152400000Y-150495000D01*
X121920000Y-153035000D02*
X149860000Y-153035000D01*
X116205000Y-147320000D02*
X121920000Y-153035000D01*
X116205000Y-83820000D02*
X116205000Y-147320000D01*
M02*
